<?xml version="1.0" encoding="utf-8"?>
<!-- Generator: Adobe Illustrator 16.0.3, SVG Export Plug-In . SVG Version: 6.00 Build 0)  -->
<svg version="1.2" baseProfile="tiny" id="Ebene_1" xmlns="http://www.w3.org/2000/svg" xmlns:xlink="http://www.w3.org/1999/xlink"
	 x="0px" y="0px" width="595px" height="623px" viewBox="0 0 595 623" xml:space="preserve">
<g>
	<path fill="#00305D" d="M47.39,216.271c5.684,1.846,11.792-1.26,13.633-6.943c1.841-5.693-1.265-11.797-6.948-13.643
		s-11.782,1.27-13.623,6.963C38.601,208.331,41.706,214.425,47.39,216.271z"/>
	<path fill="#00305D" d="M41.931,349.972c5.903-0.938,9.937-6.484,8.999-12.383c-0.933-5.898-6.475-9.922-12.383-8.984
		c-5.898,0.928-9.922,6.465-8.975,12.373C30.5,346.886,36.032,350.89,41.931,349.972z"/>
	<path fill="#00305D" d="M97.775,471.573c4.834-3.516,5.908-10.293,2.412-15.117c-3.525-4.844-10.293-5.898-15.137-2.393
		c-4.834,3.506-5.889,10.264-2.373,15.107C86.184,474.005,92.941,475.079,97.775,471.573z"/>
	<path fill="#00305D" d="M202.727,554.566c2.725-5.332,0.605-11.836-4.707-14.551c-5.342-2.715-11.846-0.605-14.57,4.727
		c-2.705,5.332-0.586,11.836,4.756,14.551C193.527,562.008,200.012,559.898,202.727,554.566z"/>
	<path fill="#0080B5" d="M342.961,580.875c0-10.977-8.848-19.863-19.814-19.863c-10.986,0-19.873,8.887-19.873,19.863
		c0,10.957,8.887,19.844,19.873,19.824C334.094,600.719,342.961,591.832,342.961,580.875z"/>
	<path fill="#00305D" d="M161.398,60.938l-4.756,4.043l20.557,24.131c5.771,6.777,7.09,13.203,4.258,20.527
		c-1.465,3.652-3.867,7.012-6.973,9.648c-9.18,7.832-21.133,7.52-28.203-0.781l-22.07-25.898l-4.746,4.043l-1.992-2.344
		l15.068-12.832l2.002,2.334l-4.756,4.053l20.4,23.945c6.523,7.656,15.283,8.828,22.314,2.832c7.217-6.143,7.725-15.43,1.25-23.027
		L153.41,67.735l-4.746,4.043l-1.992-2.344l12.725-10.84L161.398,60.938z"/>
	<path fill="#00305D" d="M235.188,79.815l-16.621,8.789l-1.436-2.715l5.518-2.92l-11.406-21.543
		c-2.07-3.896-5.332-5.283-8.574-3.564c-3.154,1.67-4.258,4.043-6.758,14.785l10.117,19.121l5.586-2.969l1.445,2.734l-16.699,8.828
		l-1.445-2.725l5.586-2.959l-14.004-26.465l-6.396,3.379l-1.045-1.982l9.063-8.467l1.328-0.703l4.355,8.232
		c2.129-9.316,4.248-12.979,8.945-15.459c5.449-2.891,10.703-1.152,13.691,4.521l11.797,22.275l5.508-2.92L235.188,79.815z"/>
	<path fill="#00305D" d="M257.551,72.882l-17.861,6.133l-1.006-2.91l5.986-2.051l-9.717-28.34l-6.846,2.354l-0.732-2.129
		l10.283-6.963l1.416-0.479l11.504,33.525l5.977-2.051L257.551,72.882z M229.729,22.003c2.354-0.811,4.795,0.381,5.576,2.656
		c0.801,2.363-0.391,4.805-2.744,5.605c-2.285,0.781-4.717-0.41-5.518-2.773C226.252,25.216,227.443,22.784,229.729,22.003z"/>
	<path fill="#00305D" d="M288.088,30.714l-3.428,0.693l-6.191,37.676l-1.631,0.342L255.49,37.413l-3.438,0.605l-0.615-3.008
		l15.82-3.213l0.605,3.018l-5.703,1.152l14.58,22.09l4.248-25.898l-5.449,1.104l-0.615-3.018l12.549-2.559L288.088,30.714z"/>
	<path fill="#00305D" d="M302.863,39.669c0.488-6.514,4.561-10.771,10.625-11.016c4.824-0.205,8.379,3.232,8.594,8.223l0.078,2.002
		L302.863,39.669z M327.141,56.729c-4.531,3.193-6.748,4.121-10.078,4.258c-7.891,0.313-13.672-6.689-14.102-17.08l-0.039-0.908
		l26.191-1.074l-0.098-2.246c-0.371-8.984-6.777-14.883-15.752-14.512c-10.303,0.42-17.529,9.219-17.041,20.85
		c0.469,11.475,8.281,19.316,18.848,18.877c4.814-0.195,7.686-1.309,13.77-5.146L327.141,56.729z"/>
	<path fill="#00305D" d="M354.475,65.675l-20.439-2.09l0.313-3.066l6.289,0.645l3.066-29.795l-7.207-0.742l0.234-2.236l12.246-1.992
		l1.484,0.146l-0.947,9.268c6.748-7.002,9.072-8.604,12.061-8.301c0.996,0.107,1.797,0.449,2.246,0.996l2.324,2.49l-5.391,5.303
		c-1.494-1.738-2.578-2.607-3.398-2.695c-1.504-0.156-3.125,1.104-8.242,6.182l-2.266,22.021l7.939,0.811L354.475,65.675z"/>
	<path fill="#00305D" d="M367.922,68.595l-3.232-0.781l2.783-11.484l3.721,0.908l-0.537,2.178c-0.84,3.477,2.949,7.646,7.969,8.867
		c4.434,1.074,8.32-0.469,9.102-3.701c0.791-3.232-1.035-5.557-8.73-10.938c-7.031-4.863-9.063-8.535-7.822-13.623
		c1.533-6.309,7.666-9.355,15.107-7.549c3.555,0.859,6.094,2.422,7.9,4.824l1.191-2.793l3.477,0.84l-4.775,11.172l-3.467-0.84
		c0.537-0.801,0.947-1.816,1.133-2.549c0.771-3.154-2.246-6.631-6.611-7.686c-4.199-1.016-7.5,0.586-8.35,4.063
		c-0.84,3.477-0.381,4.014,8.447,10.352c7.168,5.068,9.023,8.34,7.764,13.535c-1.572,6.455-7.686,9.766-14.873,8.018
		c-4.531-1.094-7.676-2.959-9.492-5.713L367.922,68.595z"/>
	<path fill="#00305D" d="M413.801,81.983l-17.676-6.66l1.094-2.891l5.918,2.246l10.576-28.027l-6.768-2.559l0.781-2.1l12.363,1.191
		l1.406,0.537l-12.529,33.164l5.908,2.227L413.801,81.983z M424.807,25.05c2.334,0.879,3.447,3.34,2.598,5.605
		c-0.889,2.334-3.35,3.447-5.684,2.568c-2.256-0.85-3.369-3.32-2.49-5.654C420.09,25.304,422.551,24.19,424.807,25.05z"/>
	<path fill="#00305D" d="M438.713,90.333c-5.498,1.152-7.324,1.084-10.088-0.303c-4.307-2.148-5.566-6.133-3.301-10.674
		l11.484-22.998l-6.465-3.232l0.996-2.012l7.295,1.602l5.127-10.273l5.371,2.676l-5.254,10.498l9.229,4.609l-1.709,3.418
		l-9.229-4.609l-11.162,22.324c-1.406,2.832-0.957,4.355,1.494,5.586c1.563,0.781,2.686,0.967,5.947,0.742L438.713,90.333z"/>
	<path fill="#00305D" d="M489.641,69.562c1.309-1.914,0.879-4.531-1.035-5.85s-4.512-0.781-5.83,1.143
		c-1.279,1.855-0.85,4.463,1.074,5.781S488.371,71.417,489.641,69.562z M469.982,110.675l-5.283-3.633l14.512-21.123
		c3.105-4.521,1.201-10.273-4.834-14.424c-6.24-4.277-12.861-4.492-15.596-0.508c-0.518,0.752-0.684,1.143-0.771,2.295l7.334,2.412
		l2.266-3.301c2.637,0.41,3.672,0.82,5.039,1.758c2.754,1.885,3.438,5.293,1.563,8.027l-5.332,7.754l-13.555-5.381
		c-3.818-1.514-8.066-0.186-10.459,3.32c-3.154,4.6-1.924,10.283,2.813,13.545c3.643,2.48,7.236,2.832,12.568,1.25
		c-0.195,0.273-0.342,0.479-0.488,0.684c-1.738,2.539-1.543,4.902,0.586,6.357c0.547,0.381,1.66,0.83,2.734,1.172l5.586,1.709
		L469.982,110.675z M477.492,61.222c1.318-1.914,0.898-4.531-1.025-5.84c-1.924-1.328-4.502-0.781-5.83,1.133
		c-1.27,1.855-0.85,4.473,1.074,5.781C473.625,63.624,476.223,63.077,477.492,61.222z M462.004,99.952
		c-4.844,0.596-7.305,0.332-9.492-1.172c-2.881-1.982-3.457-5.107-1.484-7.988l2.363-3.428l13.604,5.313L462.004,99.952z"/>
	<path fill="#00305D" d="M488.254,127.96c-5.605-0.332-7.354-0.879-9.648-2.93c-3.594-3.223-3.77-7.402-0.391-11.182l17.129-19.17
		l-5.41-4.824l1.504-1.68l6.626,3.457l7.646-8.555l4.453,3.984l-7.803,8.75l7.686,6.875l-2.549,2.852l-7.676-6.875l-16.646,18.613
		c-2.109,2.363-2.07,3.945-0.02,5.781c1.289,1.172,2.324,1.641,5.547,2.285L488.254,127.96z"/>
	<path fill="#00305D" d="M96.945,340.362l-3.975-20.176l3.018-0.586l1.211,6.113l47.832-9.414l-1.201-6.133l3.018-0.586l4.609,23.34
		c1.855,9.473-3.223,17.256-12.363,19.063c-9.141,1.797-17.773-4.551-19.766-14.678c-0.313-1.553-0.4-2.471-0.41-4.678l2.852-0.547
		c-0.02,1.094,0.049,1.504,0.195,2.246c1.377,7.012,8.398,11.66,15.664,10.215c6.533-1.279,10.898-6.641,9.844-12.021l-1.758-8.896
		l-47.09,9.277l1.357,6.934L96.945,340.362z"/>
	<path fill="#00305D" d="M144.387,373.868c2.549,5.703-1.982,13.096-10.41,16.865c-8.438,3.76-16.973,2.188-19.512-3.516
		c-2.549-5.684,2.09-13.047,10.449-16.777C133.352,366.69,141.848,368.175,144.387,373.868z M111.262,388.653
		c4.102,9.189,15.566,12.998,25.586,8.535c10.039-4.473,14.844-15.547,10.742-24.736c-4.102-9.199-15.566-13.018-25.586-8.545
		C111.975,368.39,107.16,379.464,111.262,388.653z"/>
	<path fill="#00305D" d="M142.941,433.409c-5.381-1.66-6.943-2.598-8.691-5.137c-2.734-3.965-1.934-8.066,2.246-10.938l21.172-14.6
		l-4.102-5.967l1.836-1.27l5.615,4.922l9.463-6.523l3.398,4.941l-9.658,6.66l5.85,8.486l-3.145,2.178l-5.859-8.496l-20.547,14.17
		c-2.598,1.787-2.949,3.35-1.387,5.605c0.986,1.436,1.875,2.139,4.854,3.525L142.941,433.409z"/>
	<path fill="#00305D" d="M149.875,448.194l-2.324-2.393l8.496-8.213l2.656,2.754l-1.602,1.563c-2.578,2.48-1.611,8.027,1.973,11.738
		c3.184,3.291,7.285,4.063,9.688,1.748c2.383-2.314,2.08-5.264-1.543-13.896c-3.34-7.891-3.086-12.07,0.674-15.703
		c4.678-4.512,11.484-3.809,16.807,1.689c2.539,2.627,3.848,5.303,4.092,8.311l2.51-1.738l2.48,2.578l-10,6.895l-2.49-2.578
		c0.889-0.391,1.787-1.025,2.324-1.543c2.334-2.256,1.65-6.797-1.475-10.029c-3.008-3.105-6.66-3.525-9.219-1.045
		c-2.578,2.5-2.471,3.203,1.602,13.281c3.33,8.105,3.145,11.875-0.684,15.576c-4.785,4.629-11.719,4.16-16.865-1.162
		c-3.232-3.35-4.893-6.621-4.951-9.912L149.875,448.194z"/>
	<path fill="#00305D" d="M202.277,482.667c-3.672,0.215-4.99-0.068-7.129-1.523c-5.645-3.818-5.898-10.723-0.664-18.438
		c5.371-7.92,13.438-10.195,20.117-5.664c4.063,2.754,4.453,5.137,1.563,9.404l-10.82,15.986
		C203.977,482.511,202.922,482.589,202.277,482.667z M214.152,493.609l-5.996-4.043l31.777-46.919l-1.309-0.889l-11.738-4.033
		l-1.27,1.855l5.996,4.063l-10.781,15.918c-1.68-3.154-2.695-4.336-5.039-5.928c-9.014-6.104-21.494-3.408-27.93,6.104
		c-5.977,8.809-5.039,19.59,2.119,24.438c3.506,2.383,6.768,2.793,13.115,1.563l-3.262,4.824l1.309,0.879l11.699,4.102
		L214.152,493.609z"/>
	<path fill="#00305D" d="M245.07,502.809c-4.59,1.66-7.031,1.934-9.512,0.957c-3.242-1.289-4.492-4.219-3.203-7.461l1.543-3.867
		l14.453,2.188L245.07,502.809z M255.227,511.52l-5.957-2.383l9.492-23.809c2.031-5.103-1.094-10.278-7.891-12.993
		c-7.031-2.803-13.535-1.543-15.332,2.93c-0.332,0.859-0.41,1.27-0.234,2.422l7.676,0.723l1.484-3.711
		c2.666-0.176,3.77-0.02,5.313,0.605c3.086,1.23,4.512,4.395,3.281,7.48l-3.486,8.735l-14.414-2.246
		c-4.053-0.625-7.891,1.602-9.463,5.547c-2.07,5.176,0.4,10.449,5.723,12.578c4.102,1.641,7.695,1.172,12.539-1.543
		c-0.127,0.313-0.225,0.547-0.313,0.781c-1.133,2.852-0.43,5.098,1.973,6.055c0.615,0.254,1.787,0.449,2.92,0.547l5.82,0.43
		L255.227,511.52z"/>
	<path fill="#00305D" d="M335.148,527.34l-18.711-1.836l0.303-3.066l6.299,0.625l2.363-24.258c0.439-4.473-1.553-7.266-5.195-7.617
		c-2.734-0.273-5,0.762-8.936,4.219l-4.854,4.297l-2.1,21.523l6.211,0.605l-0.303,3.066l-18.711-1.816l0.293-3.066l6.211,0.605
		l2.383-24.258c0.43-4.395-1.543-7.344-5.195-7.715c-3.555-0.332-5.781,1.035-13.799,8.613l-2.1,21.523l6.299,0.625l-0.303,3.047
		l-18.789-1.816l0.293-3.086l6.289,0.625l2.91-29.805l-7.197-0.703l0.225-2.246l12.227-2.056l1.494,0.137l-0.908,9.282
		c6.914-6.602,10.703-8.496,15.996-7.969c5.879,0.566,8.809,3.945,9.014,10.41c6.914-6.602,10.693-8.477,15.908-7.969
		c6.133,0.586,9.551,4.941,8.936,11.23l-2.461,25.176l6.211,0.605L335.148,527.34z"/>
	<path fill="#00305D" d="M333.205,243.116c-0.42-1.182-0.732-2.832-0.732-4.688c0-3.574,0.977-6.465,2.188-6.465
		c1.201,0,2.178,2.891,2.178,6.465c0,1.855-0.283,3.545-0.713,4.727h16.914c-0.41-1.182-0.693-2.871-0.693-4.727
		c0-3.574,0.986-6.465,2.178-6.465c1.211,0,2.188,2.891,2.188,6.465c0,1.855-0.273,3.545-0.693,4.727h16.768
		c-0.43-1.182-0.684-2.871-0.684-4.727c0-3.574,0.977-6.465,2.178-6.465s2.178,2.891,2.178,6.465c0,1.855-0.273,3.545-0.703,4.727
		h16.738c-0.42-1.182-0.684-2.871-0.684-4.727c0-3.574,0.967-6.465,2.168-6.465c1.211,0,2.188,2.891,2.188,6.465
		c0,1.855-0.273,3.545-0.703,4.727h15.938V219.19h5.4c0.615-1.65,1.592-4.619,1.484-7.988c-0.537-17.305,8.799-31.602,29.277-32.344
		c-0.361-1.152-0.596-2.715-0.596-4.453c0-3.574,1.006-6.465,2.207-6.465c1.211,0,2.217,2.891,2.217,6.465
		c0,1.738-0.244,3.301-0.615,4.453c20.488,0.742,29.824,15.039,29.297,32.344c-0.117,3.369,0.859,6.338,1.504,7.988h5.391v23.965
		h15.923c-0.43-1.182-0.684-2.871-0.684-4.727c0-3.574,0.957-6.465,2.168-6.465c1.201,0,2.178,2.891,2.178,6.465
		c0,1.855-0.264,3.545-0.693,4.727h16.729c-0.42-1.182-0.674-2.871-0.674-4.727c0-3.574,0.957-6.465,2.178-6.465
		c1.191,0,2.168,2.891,2.168,6.465c0,1.855-0.264,3.545-0.693,4.727h16.768c-0.42-1.182-0.703-2.871-0.703-4.727
		c0-3.574,0.986-6.465,2.197-6.465c1.182,0,2.178,2.891,2.178,6.465c0,1.855-0.283,3.545-0.713,4.727h16.924
		c-0.43-1.182-0.703-2.871-0.703-4.727c0-3.574,0.986-6.465,2.197-6.465c1.191,0,2.168,2.891,2.168,6.465
		c0,1.855-0.303,3.506-0.752,4.688v8.984h-78.159v6.172h-75.566v-6.172h75.547l-37.773-20.254l-37.773,20.254h-78.193V243.116z
		 M486.965,258.39h78.169v135.723H542.78c-4.531,11.455-25.918,21.016-55.835,25.449v-22.773
		c27.036-3.711,55.298-13.389,55.454-27.119c0.137-12.09-22.773-22.754-55.435-27.383V258.39z M542.761,342.315h10.898v-68.223
		h-10.898V342.315z M520.417,342.315h10.898v-68.223h-10.898V342.315z M498.132,342.315h10.908v-68.223h-10.908V342.315z
		 M518.356,369.757c0-8.34-14.6-14.688-31.411-18.125v36.25C505.856,384.024,518.356,377.335,518.356,369.757z M478.82,342.267
		v-68.115h-10.898v68.115H478.82z M411.408,396.788v22.773c-29.912-4.434-51.318-13.994-55.83-25.449h-22.373V258.39h78.193v83.896
		c-32.686,4.629-55.586,15.293-55.449,27.383C356.125,383.399,384.377,393.077,411.408,396.788z M389.309,342.315h10.898v-68.223
		h-10.898V342.315z M367.043,342.315h10.889v-68.223h-10.889V342.315z M355.578,274.093H344.68v68.223h10.898V274.093z
		 M380.012,369.757c0,7.578,12.48,14.268,31.396,18.125v-36.25C394.582,355.069,380.012,361.417,380.012,369.757z M418.01,387.892
		h62.363v-36.455H418.01V387.892z M459.602,342.267v-68.115h-20.84v68.115H459.602z M430.432,342.267v-68.115h-10.889v68.115
		H430.432z"/>
</g>
</svg>
